ffmpeg started on 2025-04-30 at 18:52:23
Report written to "D:\Convert\FFMetrics\reports\ssim_report-6.txt"
Log level: 32
Command line:
ffmpeg -hide_banner -nostdin -i "G:\\\xc0\xed\xe8\xec\xe5\\\xce\xed\xe3\xee\xe8\xed\xe3\xe8\\!_35_\xcb\xe5\xf2\xee_2024\\JamClub\\\xcc\xee\xff \xf1\xfd\xec\xef\xe0\xe9 - \xef\xe0\xf0\xe5\xed\xfc\\JamClub_Senpai_wa_Otokonoko_11_1080p_HEVC.mkv" -i "G:\\\xc0\xed\xe8\xec\xe5\\\xce\xed\xe3\xee\xe8\xed\xe3\xe8\\!_35_\xcb\xe5\xf2\xee_2024\\JamClub\\\xcc\xee\xff \xf1\xfd\xec\xef\xe0\xe9 - \xef\xe0\xf0\xe5\xed\xfc\\JamClub_Senpai_wa_Otokonoko_11_1080p.mp4" -lavfi "[0:v]settb=AVTB,setpts=PTS-STARTPTS,format=pix_fmts=yuv420p10,fps=24000/1001,scale=1920:1080:flags=bicubic[main];[1:v]settb=AVTB,setpts=PTS-STARTPTS,format=pix_fmts=yuv420p,fps=24000/1001,scale=1920:1080:flags=bicubic[ref];[main][ref]ssim=eof_action=endall:stats_file='D\\:/Convert/FFMetrics/logs/ssim_logfile-6.txt'" -f null -
Input #0, matroska,webm, from 'G:\Аниме\Онгоинги\!_35_Лето_2024\JamClub\Моя сэмпай - парень\JamClub_Senpai_wa_Otokonoko_11_1080p_HEVC.mkv':
  Metadata:
    COMPATIBLE_BRANDS: isomiso2avc1mp41
    MAJOR_BRAND     : isom
    MINOR_VERSION   : 512
    ENCODER         : Lavf61.7.100
  Duration: 00:23:13.37, start: -0.001000, bitrate: 1126 kb/s
  Stream #0:0: Video: hevc (Main 10), yuv420p10le(tv, bt709, progressive), 1920x1080 [SAR 1:1 DAR 16:9], 23.98 fps, 23.98 tbr, 1k tbn (default)
      Metadata:
        HANDLER_NAME    : VideoHandler
        VENDOR_ID       : [0][0][0][0]
        ENCODER         : Lavc61.19.100 libx265
        BPS             : 928577
        DURATION        : 00:23:12.223708333
        NUMBER_OF_FRAMES: 33380
        NUMBER_OF_BYTES : 161598372
        _STATISTICS_WRITING_APP: mkvpropedit v66.0.0 ('Josie') 64-bit
        _STATISTICS_WRITING_DATE_UTC: 2025-04-29 17:13:51
        _STATISTICS_TAGS: BPS DURATION NUMBER_OF_FRAMES NUMBER_OF_BYTES
  Stream #0:1(eng): Audio: aac (LC), 48000 Hz, stereo, fltp (default)
      Metadata:
        HANDLER_NAME    : SoundHandler
        VENDOR_ID       : [0][0][0][0]
        ENCODER         : Lavc61.19.100 aac
        BPS             : 194355
        DURATION        : 00:23:13.325000000
        NUMBER_OF_FRAMES: 65313
        NUMBER_OF_BYTES : 33850126
        _STATISTICS_WRITING_APP: mkvpropedit v66.0.0 ('Josie') 64-bit
        _STATISTICS_WRITING_DATE_UTC: 2025-04-29 17:13:51
        _STATISTICS_TAGS: BPS DURATION NUMBER_OF_FRAMES NUMBER_OF_BYTES
Input #1, mov,mp4,m4a,3gp,3g2,mj2, from 'G:\Аниме\Онгоинги\!_35_Лето_2024\JamClub\Моя сэмпай - парень\JamClub_Senpai_wa_Otokonoko_11_1080p.mp4':
  Metadata:
    major_brand     : isom
    minor_version   : 512
    compatible_brands: isomiso2avc1mp41
    encoder         : Lavf60.16.100
  Duration: 00:23:13.35, start: 0.000000, bitrate: 4091 kb/s
  Stream #1:0[0x1](und): Video: h264 (High) (avc1 / 0x31637661), yuv420p(progressive), 1920x1080 [SAR 1:1 DAR 16:9], 3896 kb/s, 23.98 fps, 23.98 tbr, 90k tbn (default)
      Metadata:
        handler_name    : VideoHandler
        vendor_id       : [0][0][0][0]
  Stream #1:1[0x2](eng): Audio: aac (LC) (mp4a / 0x6134706D), 48000 Hz, stereo, fltp, 191 kb/s (default)
      Metadata:
        handler_name    : SoundHandler
        vendor_id       : [0][0][0][0]
Stream mapping:
  Stream #0:0 (hevc) -> settb:default
  Stream #1:0 (h264) -> settb:default
  ssim:default -> Stream #0:0 (wrapped_avframe)
  Stream #0:1 -> #0:1 (aac (native) -> pcm_s16le (native))
Output #0, null, to 'pipe:':
  Metadata:
    COMPATIBLE_BRANDS: isomiso2avc1mp41
    MAJOR_BRAND     : isom
    MINOR_VERSION   : 512
    encoder         : Lavf61.7.100
  Stream #0:0: Video: wrapped_avframe, yuv420p10le(tv, bt709, progressive), 1920x1080 [SAR 1:1 DAR 16:9], q=2-31, 200 kb/s, 23.98 fps, 23.98 tbn
      Metadata:
        encoder         : Lavc61.19.100 wrapped_avframe
  Stream #0:1(eng): Audio: pcm_s16le, 48000 Hz, stereo, s16, 1536 kb/s (default)
      Metadata:
        HANDLER_NAME    : SoundHandler
        VENDOR_ID       : [0][0][0][0]
        _STATISTICS_TAGS: BPS DURATION NUMBER_OF_FRAMES NUMBER_OF_BYTES
        BPS             : 194355
        DURATION        : 00:23:13.325000000
        NUMBER_OF_FRAMES: 65313
        NUMBER_OF_BYTES : 33850126
        _STATISTICS_WRITING_APP: mkvpropedit v66.0.0 ('Josie') 64-bit
        _STATISTICS_WRITING_DATE_UTC: 2025-04-29 17:13:51
        encoder         : Lavc61.19.100 pcm_s16le
frame=  121 fps=0.0 q=-0.0 size=N/A time=00:00:05.04 bitrate=N/A speed=9.81x    frame=  286 fps=275 q=-0.0 size=N/A time=00:00:11.92 bitrate=N/A speed=11.5x    frame=  490 fps=317 q=-0.0 size=N/A time=00:00:20.43 bitrate=N/A speed=13.2x    frame=  733 fps=357 q=-0.0 size=N/A time=00:00:30.57 bitrate=N/A speed=14.9x    frame= 1005 fps=390 q=-0.0 size=N/A time=00:00:41.91 bitrate=N/A speed=16.2x    frame= 1276 fps=413 q=-0.0 size=N/A time=00:00:53.21 bitrate=N/A speed=17.2x    frame= 1536 fps=425 q=-0.0 size=N/A time=00:01:04.06 bitrate=N/A speed=17.7x    frame= 1780 fps=432 q=-0.0 size=N/A time=00:01:14.24 bitrate=N/A speed=  18x    frame= 2042 fps=440 q=-0.0 size=N/A time=00:01:25.16 bitrate=N/A speed=18.4x    frame= 2269 fps=440 q=-0.0 size=N/A time=00:01:34.63 bitrate=N/A speed=18.3x    frame= 2473 fps=436 q=-0.0 size=N/A time=00:01:43.14 bitrate=N/A speed=18.2x    frame= 2674 fps=433 q=-0.0 size=N/A time=00:01:51.52 bitrate=N/A speed=  18x    frame= 2893 fps=431 q=-0.0 size=N/A time=00:02:00.66 bitrate=N/A speed=  18x    frame= 3128 fps=434 q=-0.0 size=N/A time=00:02:10.46 bitrate=N/A speed=18.1x    frame= 3371 fps=436 q=-0.0 size=N/A time=00:02:20.59 bitrate=N/A speed=18.2x    frame= 3590 fps=435 q=-0.0 size=N/A time=00:02:29.73 bitrate=N/A speed=18.2x    frame= 3837 fps=438 q=-0.0 size=N/A time=00:02:40.03 bitrate=N/A speed=18.3x    frame= 4078 fps=440 q=-0.0 size=N/A time=00:02:50.08 bitrate=N/A speed=18.3x    frame= 4333 fps=442 q=-0.0 size=N/A time=00:03:00.72 bitrate=N/A speed=18.4x    frame= 4589 fps=445 q=-0.0 size=N/A time=00:03:11.39 bitrate=N/A speed=18.6x    frame= 4855 fps=448 q=-0.0 size=N/A time=00:03:22.49 bitrate=N/A speed=18.7x    frame= 5130 fps=452 q=-0.0 size=N/A time=00:03:33.96 bitrate=N/A speed=18.9x    frame= 5398 fps=455 q=-0.0 size=N/A time=00:03:45.14 bitrate=N/A speed=  19x    frame= 5645 fps=456 q=-0.0 size=N/A time=00:03:55.44 bitrate=N/A speed=  19x    frame= 5899 fps=458 q=-0.0 size=N/A time=00:04:06.03 bitrate=N/A speed=19.1x    frame= 6155 fps=459 q=-0.0 size=N/A time=00:04:16.71 bitrate=N/A speed=19.1x    frame= 6408 fps=460 q=-0.0 size=N/A time=00:04:27.26 bitrate=N/A speed=19.2x    frame= 6673 fps=462 q=-0.0 size=N/A time=00:04:38.31 bitrate=N/A speed=19.3x    frame= 6942 fps=464 q=-0.0 size=N/A time=00:04:49.53 bitrate=N/A speed=19.4x    frame= 7222 fps=467 q=-0.0 size=N/A time=00:05:01.21 bitrate=N/A speed=19.5x    frame= 7470 fps=467 q=-0.0 size=N/A time=00:05:11.56 bitrate=N/A speed=19.5x    frame= 7692 fps=466 q=-0.0 size=N/A time=00:05:20.82 bitrate=N/A speed=19.4x    frame= 7937 fps=467 q=-0.0 size=N/A time=00:05:31.03 bitrate=N/A speed=19.5x    frame= 8210 fps=468 q=-0.0 size=N/A time=00:05:42.42 bitrate=N/A speed=19.5x    frame= 8451 fps=468 q=-0.0 size=N/A time=00:05:52.47 bitrate=N/A speed=19.5x    frame= 8686 fps=467 q=-0.0 size=N/A time=00:06:02.27 bitrate=N/A speed=19.5x    frame= 8919 fps=467 q=-0.0 size=N/A time=00:06:11.99 bitrate=N/A speed=19.5x    frame= 9135 fps=466 q=-0.0 size=N/A time=00:06:21.00 bitrate=N/A speed=19.4x    frame= 9344 fps=464 q=-0.0 size=N/A time=00:06:29.72 bitrate=N/A speed=19.4x    frame= 9569 fps=463 q=-0.0 size=N/A time=00:06:39.10 bitrate=N/A speed=19.3x    frame= 9791 fps=462 q=-0.0 size=N/A time=00:06:48.36 bitrate=N/A speed=19.3x    frame=10048 fps=463 q=-0.0 size=N/A time=00:06:59.08 bitrate=N/A speed=19.3x    frame=10262 fps=462 q=-0.0 size=N/A time=00:07:08.01 bitrate=N/A speed=19.3x    frame=10519 fps=463 q=-0.0 size=N/A time=00:07:18.72 bitrate=N/A speed=19.3x    frame=10787 fps=464 q=-0.0 size=N/A time=00:07:29.90 bitrate=N/A speed=19.4x    frame=11048 fps=465 q=-0.0 size=N/A time=00:07:40.79 bitrate=N/A speed=19.4x    frame=11296 fps=466 q=-0.0 size=N/A time=00:07:51.13 bitrate=N/A speed=19.4x    frame=11553 fps=466 q=-0.0 size=N/A time=00:08:01.85 bitrate=N/A speed=19.4x    frame=11813 fps=467 q=-0.0 size=N/A time=00:08:12.70 bitrate=N/A speed=19.5x    frame=12014 fps=466 q=-0.0 size=N/A time=00:08:21.08 bitrate=N/A speed=19.4x    frame=12259 fps=466 q=-0.0 size=N/A time=00:08:31.30 bitrate=N/A speed=19.4x    frame=12519 fps=466 q=-0.0 size=N/A time=00:08:42.14 bitrate=N/A speed=19.5x    frame=12763 fps=466 q=-0.0 size=N/A time=00:08:52.32 bitrate=N/A speed=19.5x    frame=12980 fps=466 q=-0.0 size=N/A time=00:09:01.37 bitrate=N/A speed=19.4x    frame=13214 fps=465 q=-0.0 size=N/A time=00:09:11.13 bitrate=N/A speed=19.4x    frame=13454 fps=466 q=-0.0 size=N/A time=00:09:21.14 bitrate=N/A speed=19.4x    frame=13699 fps=466 q=-0.0 size=N/A time=00:09:31.36 bitrate=N/A speed=19.4x    frame=13952 fps=466 q=-0.0 size=N/A time=00:09:41.91 bitrate=N/A speed=19.4x    frame=14189 fps=466 q=-0.0 size=N/A time=00:09:51.79 bitrate=N/A speed=19.4x    frame=14406 fps=465 q=-0.0 size=N/A time=00:10:00.85 bitrate=N/A speed=19.4x    frame=14618 fps=464 q=-0.0 size=N/A time=00:10:09.69 bitrate=N/A speed=19.4x    frame=14811 fps=463 q=-0.0 size=N/A time=00:10:17.74 bitrate=N/A speed=19.3x    frame=15012 fps=462 q=-0.0 size=N/A time=00:10:26.12 bitrate=N/A speed=19.3x    frame=15276 fps=463 q=-0.0 size=N/A time=00:10:37.13 bitrate=N/A speed=19.3x    frame=15524 fps=463 q=-0.0 size=N/A time=00:10:47.48 bitrate=N/A speed=19.3x    frame=15760 fps=463 q=-0.0 size=N/A time=00:10:57.32 bitrate=N/A speed=19.3x    frame=15985 fps=462 q=-0.0 size=N/A time=00:11:06.70 bitrate=N/A speed=19.3x    frame=16188 fps=461 q=-0.0 size=N/A time=00:11:15.17 bitrate=N/A speed=19.2x    frame=16381 fps=460 q=-0.0 size=N/A time=00:11:23.22 bitrate=N/A speed=19.2x    frame=16585 fps=459 q=-0.0 size=N/A time=00:11:31.73 bitrate=N/A speed=19.2x    frame=16752 fps=457 q=-0.0 size=N/A time=00:11:38.69 bitrate=N/A speed=19.1x    frame=16998 fps=458 q=-0.0 size=N/A time=00:11:48.95 bitrate=N/A speed=19.1x    frame=17253 fps=458 q=-0.0 size=N/A time=00:11:59.59 bitrate=N/A speed=19.1x    frame=17467 fps=457 q=-0.0 size=N/A time=00:12:08.51 bitrate=N/A speed=19.1x    frame=17719 fps=458 q=-0.0 size=N/A time=00:12:19.02 bitrate=N/A speed=19.1x    frame=17979 fps=458 q=-0.0 size=N/A time=00:12:29.87 bitrate=N/A speed=19.1x    frame=18237 fps=459 q=-0.0 size=N/A time=00:12:40.63 bitrate=N/A speed=19.1x    frame=18469 fps=459 q=-0.0 size=N/A time=00:12:50.31 bitrate=N/A speed=19.1x    frame=18723 fps=459 q=-0.0 size=N/A time=00:13:00.90 bitrate=N/A speed=19.2x    frame=18972 fps=460 q=-0.0 size=N/A time=00:13:11.29 bitrate=N/A speed=19.2x    frame=19234 fps=460 q=-0.0 size=N/A time=00:13:22.21 bitrate=N/A speed=19.2x    frame=19490 fps=461 q=-0.0 size=N/A time=00:13:32.89 bitrate=N/A speed=19.2x    frame=19757 fps=461 q=-0.0 size=N/A time=00:13:44.03 bitrate=N/A speed=19.2x    frame=20009 fps=462 q=-0.0 size=N/A time=00:13:54.54 bitrate=N/A speed=19.3x    frame=20239 fps=461 q=-0.0 size=N/A time=00:14:04.13 bitrate=N/A speed=19.2x    frame=20474 fps=461 q=-0.0 size=N/A time=00:14:13.93 bitrate=N/A speed=19.2x    frame=20714 fps=461 q=-0.0 size=N/A time=00:14:23.94 bitrate=N/A speed=19.2x    frame=20960 fps=462 q=-0.0 size=N/A time=00:14:34.20 bitrate=N/A speed=19.3x    frame=21186 fps=461 q=-0.0 size=N/A time=00:14:43.63 bitrate=N/A speed=19.2x    frame=21425 fps=461 q=-0.0 size=N/A time=00:14:53.60 bitrate=N/A speed=19.2x    frame=21676 fps=462 q=-0.0 size=N/A time=00:15:04.06 bitrate=N/A speed=19.3x    frame=21915 fps=462 q=-0.0 size=N/A time=00:15:14.03 bitrate=N/A speed=19.3x    frame=22152 fps=462 q=-0.0 size=N/A time=00:15:23.92 bitrate=N/A speed=19.3x    frame=22387 fps=462 q=-0.0 size=N/A time=00:15:33.72 bitrate=N/A speed=19.3x    frame=22647 fps=462 q=-0.0 size=N/A time=00:15:44.56 bitrate=N/A speed=19.3x    frame=22889 fps=462 q=-0.0 size=N/A time=00:15:54.66 bitrate=N/A speed=19.3x    frame=23153 fps=463 q=-0.0 size=N/A time=00:16:05.67 bitrate=N/A speed=19.3x    frame=23406 fps=463 q=-0.0 size=N/A time=00:16:16.22 bitrate=N/A speed=19.3x    frame=23660 fps=463 q=-0.0 size=N/A time=00:16:26.81 bitrate=N/A speed=19.3x    frame=23914 fps=464 q=-0.0 size=N/A time=00:16:37.41 bitrate=N/A speed=19.3x    frame=24163 fps=464 q=-0.0 size=N/A time=00:16:47.79 bitrate=N/A speed=19.3x    frame=24428 fps=464 q=-0.0 size=N/A time=00:16:58.85 bitrate=N/A speed=19.4x    frame=24700 fps=465 q=-0.0 size=N/A time=00:17:10.19 bitrate=N/A speed=19.4x    frame=24933 fps=465 q=-0.0 size=N/A time=00:17:19.91 bitrate=N/A speed=19.4x    frame=25201 fps=465 q=-0.0 size=N/A time=00:17:31.09 bitrate=N/A speed=19.4x    frame=25416 fps=465 q=-0.0 size=N/A time=00:17:40.05 bitrate=N/A speed=19.4x    frame=25638 fps=464 q=-0.0 size=N/A time=00:17:49.31 bitrate=N/A speed=19.4x    frame=25874 fps=464 q=-0.0 size=N/A time=00:17:59.16 bitrate=N/A speed=19.4x    frame=26096 fps=464 q=-0.0 size=N/A time=00:18:08.42 bitrate=N/A speed=19.4x    frame=26342 fps=464 q=-0.0 size=N/A time=00:18:18.68 bitrate=N/A speed=19.4x    frame=26582 fps=464 q=-0.0 size=N/A time=00:18:28.69 bitrate=N/A speed=19.4x    frame=26828 fps=464 q=-0.0 size=N/A time=00:18:38.95 bitrate=N/A speed=19.4x    frame=27045 fps=464 q=-0.0 size=N/A time=00:18:48.00 bitrate=N/A speed=19.4x    frame=27308 fps=464 q=-0.0 size=N/A time=00:18:58.97 bitrate=N/A speed=19.4x    frame=27581 fps=465 q=-0.0 size=N/A time=00:19:10.35 bitrate=N/A speed=19.4x    frame=27785 fps=464 q=-0.0 size=N/A time=00:19:18.86 bitrate=N/A speed=19.4x    frame=28051 fps=465 q=-0.0 size=N/A time=00:19:29.96 bitrate=N/A speed=19.4x    frame=28301 fps=465 q=-0.0 size=N/A time=00:19:40.38 bitrate=N/A speed=19.4x    frame=28568 fps=465 q=-0.0 size=N/A time=00:19:51.52 bitrate=N/A speed=19.4x    frame=28806 fps=465 q=-0.0 size=N/A time=00:20:01.45 bitrate=N/A speed=19.4x    frame=29075 fps=466 q=-0.0 size=N/A time=00:20:12.66 bitrate=N/A speed=19.4x    frame=29330 fps=466 q=-0.0 size=N/A time=00:20:23.30 bitrate=N/A speed=19.4x    frame=29609 fps=467 q=-0.0 size=N/A time=00:20:34.94 bitrate=N/A speed=19.5x    frame=29856 fps=467 q=-0.0 size=N/A time=00:20:45.24 bitrate=N/A speed=19.5x    frame=30128 fps=467 q=-0.0 size=N/A time=00:20:56.58 bitrate=N/A speed=19.5x    frame=30394 fps=468 q=-0.0 size=N/A time=00:21:07.68 bitrate=N/A speed=19.5x    frame=30662 fps=468 q=-0.0 size=N/A time=00:21:18.86 bitrate=N/A speed=19.5x    frame=30892 fps=468 q=-0.0 size=N/A time=00:21:28.45 bitrate=N/A speed=19.5x    frame=31169 fps=468 q=-0.0 size=N/A time=00:21:40.00 bitrate=N/A speed=19.5x    frame=31419 fps=469 q=-0.0 size=N/A time=00:21:50.43 bitrate=N/A speed=19.5x    frame=31637 fps=468 q=-0.0 size=N/A time=00:21:59.52 bitrate=N/A speed=19.5x    frame=31853 fps=468 q=-0.0 size=N/A time=00:22:08.53 bitrate=N/A speed=19.5x    frame=32028 fps=467 q=-0.0 size=N/A time=00:22:15.83 bitrate=N/A speed=19.5x    frame=32224 fps=466 q=-0.0 size=N/A time=00:22:24.00 bitrate=N/A speed=19.4x    frame=32480 fps=466 q=-0.0 size=N/A time=00:22:34.72 bitrate=N/A speed=19.5x    frame=32747 fps=467 q=-0.0 size=N/A time=00:22:45.82 bitrate=N/A speed=19.5x    frame=32993 fps=467 q=-0.0 size=N/A time=00:22:56.08 bitrate=N/A speed=19.5x    frame=33251 fps=467 q=-0.0 size=N/A time=00:23:06.84 bitrate=N/A speed=19.5x    [Parsed_ssim_10 @ 000001cc9f2606c0] SSIM Y:0.993516 (21.881800) U:0.994392 (22.511693) V:0.994123 (22.308731) All:0.993763 (22.050529)
[out#0/null @ 000001cc92af4e80] video:14343KiB audio:261252KiB subtitle:0KiB other streams:0KiB global headers:0KiB muxing overhead: unknown
frame=33380 fps=467 q=-0.0 Lsize=N/A time=00:23:12.22 bitrate=N/A speed=19.5x    
